<svg width="64" height="64" viewBox="0 0 64 64" fill="none" xmlns="http://www.w3.org/2000/svg">
  <rect width="64" height="64" rx="12" fill="#25D366"/>
  <path d="M32 12C21.5 12 13 20.5 13 31C13 35.5 14.7 39.6 17.6 42.6L16 52L26.4 48.4C29.1 49.4 30.9 49.8 32 49.8C42.5 49.8 51 41.3 51 31C51 20.5 42.5 12 32 12Z" fill="white"/>
  <path d="M25 28C25.5 30 27 33 30.5 35.5C34 38 36.5 37.5 38 36.5C39.5 35.5 39 33.5 38 33C37 32.5 35.5 32 35 31.5C34.5 31 34.5 30.5 35 30C35.5 29.5 36.5 28.5 36.5 28C36.5 27.5 35.5 26.5 35 26C34.5 25.5 34 25 33.5 25C33 25 32 25.5 31.5 26C31 26.5 30.5 26.5 30 26.5C29.5 26.5 28.5 26 28 25.5C27.5 25 26 24.5 25.5 25C25 25.5 24.5 26.5 25 28Z" fill="#25D366"/>
</svg>
